<svg width="75" height="75" viewBox="0 0 75 75" fill="none" xmlns="http://www.w3.org/2000/svg">
<g clip-path="url(#clip0_726_348)">
<path fill-rule="evenodd" clip-rule="evenodd" d="M70.0781 17.2688L40.4859 41.775C39.6451 42.4717 38.5873 42.853 37.4953 42.853C36.4033 42.853 35.3456 42.4717 34.5047 41.775L4.92656 17.2688C4.76778 17.7464 4.68705 18.2466 4.6875 18.75V56.25C4.6875 57.4932 5.18136 58.6855 6.06044 59.5646C6.93951 60.4436 8.1318 60.9375 9.375 60.9375H65.625C66.8682 60.9375 68.0605 60.4436 68.9396 59.5646C69.8186 58.6855 70.3125 57.4932 70.3125 56.25V18.75C70.3145 18.2469 70.2353 17.7467 70.0781 17.2688ZM9.375 9.375H65.625C68.1114 9.375 70.496 10.3627 72.2541 12.1209C74.0123 13.879 75 16.2636 75 18.75V56.25C75 58.7364 74.0123 61.121 72.2541 62.8791C70.496 64.6373 68.1114 65.625 65.625 65.625H9.375C6.8886 65.625 4.50403 64.6373 2.74587 62.8791C0.987721 61.121 0 58.7364 0 56.25V18.75C0 16.2636 0.987721 13.879 2.74587 12.1209C4.50403 10.3627 6.8886 9.375 9.375 9.375ZM8.39062 14.0625L34.5281 35.6391C35.3652 36.3305 36.4164 36.7099 37.5022 36.7124C38.5879 36.715 39.6409 36.3406 40.4812 35.6531L66.8812 14.0625H8.39062Z" fill="#494949"/>
</g>
<defs>
<clipPath id="clip0_726_348">
<rect width="75" height="75" fill="white"/>
</clipPath>
</defs>
</svg>
