<svg width="75" height="75" viewBox="0 0 75 75" fill="none" xmlns="http://www.w3.org/2000/svg">
<g clip-path="url(#clip0_726_282)">
<path d="M37.5 6.25C54.7594 6.25 68.75 20.2406 68.75 37.5C68.75 54.7594 54.7594 68.75 37.5 68.75H12.5C10.8424 68.75 9.25268 68.0915 8.08058 66.9194C6.90848 65.7473 6.25 64.1576 6.25 62.5V37.5C6.25 20.2406 20.2406 6.25 37.5 6.25ZM37.5 12.5C30.8696 12.5 24.5107 15.1339 19.8223 19.8223C15.1339 24.5107 12.5 30.8696 12.5 37.5V62.5H37.5C44.1304 62.5 50.4893 59.8661 55.1777 55.1777C59.8661 50.4893 62.5 44.1304 62.5 37.5C62.5 30.8696 59.8661 24.5107 55.1777 19.8223C50.4893 15.1339 44.1304 12.5 37.5 12.5ZM37.5 43.75C38.2965 43.7509 39.0626 44.0559 39.6418 44.6027C40.221 45.1494 40.5695 45.8967 40.6162 46.6919C40.6628 47.487 40.4041 48.2699 39.8929 48.8807C39.3817 49.4915 38.6566 49.8841 37.8656 49.9781L37.5 50H28.125C27.3285 49.9991 26.5624 49.6941 25.9832 49.1474C25.404 48.6006 25.0555 47.8533 25.0088 47.0581C24.9622 46.263 25.2209 45.4801 25.7321 44.8693C26.2433 44.2585 26.9685 43.866 27.7594 43.7719L28.125 43.75H37.5ZM46.875 31.25C47.7038 31.25 48.4987 31.5792 49.0847 32.1653C49.6708 32.7513 50 33.5462 50 34.375C50 35.2038 49.6708 35.9987 49.0847 36.5847C48.4987 37.1708 47.7038 37.5 46.875 37.5H28.125C27.2962 37.5 26.5013 37.1708 25.9153 36.5847C25.3292 35.9987 25 35.2038 25 34.375C25 33.5462 25.3292 32.7513 25.9153 32.1653C26.5013 31.5792 27.2962 31.25 28.125 31.25H46.875Z" fill="#494949"/>
</g>
<defs>
<clipPath id="clip0_726_282">
<rect width="75" height="75" fill="white"/>
</clipPath>
</defs>
</svg>
