<svg width="75" height="75" viewBox="0 0 75 75" fill="none" xmlns="http://www.w3.org/2000/svg">
<path d="M44.4547 11.1123C44.534 10.8149 44.6709 10.536 44.8576 10.2917C45.0443 10.0473 45.2772 9.84233 45.5429 9.68833C45.8086 9.53434 46.1019 9.4344 46.4061 9.39421C46.7103 9.35402 47.0194 9.37437 47.3158 9.4541C51.6455 10.5877 55.5959 12.8591 58.76 16.0343C61.924 19.2095 64.1875 23.1736 65.3172 27.5186C65.3966 27.816 65.4169 28.1262 65.3769 28.4314C65.3368 28.7367 65.2372 29.031 65.0838 29.2977C64.9303 29.5643 64.726 29.798 64.4825 29.9853C64.2391 30.1727 63.9612 30.3101 63.6648 30.3897C63.4675 30.4417 63.2644 30.4682 63.0604 30.4688C62.5461 30.4689 62.0462 30.2987 61.6381 29.9846C61.2301 29.6705 60.9368 29.23 60.8037 28.7315C59.8828 25.184 58.0357 21.9472 55.4529 19.3548C52.87 16.7624 49.6449 14.9082 46.11 13.9834C45.8134 13.9042 45.5352 13.767 45.2914 13.5798C45.0476 13.3925 44.8429 13.1589 44.6892 12.8922C44.5355 12.6256 44.4356 12.3311 44.3954 12.0257C44.3551 11.7203 44.3753 11.4099 44.4547 11.1123ZM43.7745 23.3584C47.8004 24.4365 50.387 27.0352 51.4614 31.0752C51.5945 31.5737 51.8878 32.0142 52.2958 32.3283C52.7039 32.6425 53.2039 32.8127 53.7182 32.8125C53.9221 32.812 54.1252 32.7854 54.3225 32.7334C54.6189 32.6538 54.8968 32.5165 55.1402 32.3291C55.3837 32.1417 55.588 31.9081 55.7415 31.6414C55.8949 31.3748 55.9945 31.0804 56.0346 30.7752C56.0746 30.4699 56.0544 30.1597 55.9749 29.8623C54.4801 24.249 50.5739 20.3291 44.9802 18.8291C44.6838 18.7497 44.3748 18.7296 44.0707 18.77C43.7666 18.8104 43.4734 18.9105 43.2079 19.0646C42.9423 19.2187 42.7096 19.4238 42.5231 19.6682C42.3365 19.9125 42.1998 20.1914 42.1206 20.4888C42.0414 20.7862 42.0214 21.0963 42.0617 21.4015C42.1019 21.7066 42.2017 22.0008 42.3553 22.2673C42.5089 22.5338 42.7132 22.7673 42.9567 22.9545C43.2002 23.1417 43.4781 23.279 43.7745 23.3584ZM64.9201 46.4238L51.1665 40.2393L51.1286 40.2217C50.4146 39.9152 49.6357 39.7922 48.8624 39.8639C48.0891 39.9355 47.3458 40.1994 46.6998 40.6318C46.6237 40.6823 46.5506 40.737 46.4808 40.7959L39.3748 46.875C34.873 44.6807 30.2252 40.0518 28.0386 35.5928L34.1052 28.3535C34.1636 28.2803 34.2191 28.207 34.2716 28.1279C34.6933 27.4814 34.9491 26.7402 35.0163 25.9704C35.0836 25.2007 34.9601 24.4262 34.657 23.7158V23.6807L28.4765 9.85547C28.0757 8.92754 27.3867 8.15454 26.5122 7.65187C25.6377 7.14921 24.6247 6.94383 23.6243 7.06641C19.6684 7.58879 16.0372 9.53839 13.4089 12.5511C10.7807 15.5637 9.33516 19.4335 9.34231 23.4375C9.34231 46.6992 28.202 65.625 51.3826 65.625C55.3726 65.6322 59.2289 64.1816 62.231 61.5442C65.2332 58.9067 67.176 55.2628 67.6965 51.293C67.8189 50.2895 67.6147 49.2731 67.1143 48.3956C66.614 47.5181 65.8443 46.8264 64.9201 46.4238Z" fill="#494949"/>
</svg>
