<svg width="822" height="767" viewBox="0 0 822 767" fill="none" xmlns="http://www.w3.org/2000/svg">
<path d="M52.5666 691.6C38.7 691.6 28.1266 687.7 20.8466 679.9C13.5666 671.927 9.92664 660.573 9.92664 645.84V507H38.5266V647.92C38.5266 654.16 39.74 658.667 42.1666 661.44C44.7666 664.213 48.4066 665.6 53.0866 665.6C57.7666 665.6 61.32 664.213 63.7466 661.44C66.3466 658.667 67.6466 654.16 67.6466 647.92V507H95.2066V645.84C95.2066 660.573 91.5666 671.927 84.2866 679.9C77.0066 687.7 66.4333 691.6 52.5666 691.6ZM115.576 507H157.696C171.909 507 182.569 510.813 189.676 518.44C196.783 526.067 200.336 537.247 200.336 551.98V569.92C200.336 584.653 196.783 595.833 189.676 603.46C182.569 611.087 171.909 614.9 157.696 614.9H144.176V689H115.576V507ZM157.696 588.9C162.376 588.9 165.843 587.6 168.096 585C170.523 582.4 171.736 577.98 171.736 571.74V550.16C171.736 543.92 170.523 539.5 168.096 536.9C165.843 534.3 162.376 533 157.696 533H144.176V588.9H157.696ZM209.109 507H236.669L249.409 646.88H249.929L263.449 507H294.649L308.169 646.88H308.689L321.429 507H346.129L327.669 689H292.049L279.049 566.28H278.529L265.529 689H227.569L209.109 507ZM360.596 507H438.596V533H389.196V581.1H428.456V607.1H389.196V663H438.596V689H360.596V507ZM477.149 507H515.889L545.529 689H516.929L511.729 652.86V653.38H479.229L474.029 689H447.509L477.149 507ZM508.349 628.68L495.609 538.72H495.089L482.609 628.68H508.349ZM559.404 507H588.004V663H635.064V689H559.404V507ZM650.827 533H620.927V507H709.327V533H679.427V689H650.827V533ZM723.174 507H751.774V581.1H782.454V507H811.054V689H782.454V607.1H751.774V689H723.174V507Z" fill="#E5E5E5"/>
<g opacity="0.4">
<mask id="path-2-outside-1_1_8535" maskUnits="userSpaceOnUse" x="8" y="278" width="805" height="187" fill="black">
<rect fill="white" x="8" y="278" width="805" height="187"/>
<path d="M52.5666 463.6C38.7 463.6 28.1266 459.7 20.8466 451.9C13.5666 443.927 9.92664 432.573 9.92664 417.84V279H38.5266V419.92C38.5266 426.16 39.74 430.667 42.1666 433.44C44.7666 436.213 48.4066 437.6 53.0866 437.6C57.7666 437.6 61.32 436.213 63.7466 433.44C66.3466 430.667 67.6466 426.16 67.6466 419.92V279H95.2066V417.84C95.2066 432.573 91.5666 443.927 84.2866 451.9C77.0066 459.7 66.4333 463.6 52.5666 463.6ZM115.576 279H157.696C171.909 279 182.569 282.813 189.676 290.44C196.783 298.067 200.336 309.247 200.336 323.98V341.92C200.336 356.653 196.783 367.833 189.676 375.46C182.569 383.087 171.909 386.9 157.696 386.9H144.176V461H115.576V279ZM157.696 360.9C162.376 360.9 165.843 359.6 168.096 357C170.523 354.4 171.736 349.98 171.736 343.74V322.16C171.736 315.92 170.523 311.5 168.096 308.9C165.843 306.3 162.376 305 157.696 305H144.176V360.9H157.696ZM209.109 279H236.669L249.409 418.88H249.929L263.449 279H294.649L308.169 418.88H308.689L321.429 279H346.129L327.669 461H292.049L279.049 338.28H278.529L265.529 461H227.569L209.109 279ZM360.596 279H438.596V305H389.196V353.1H428.456V379.1H389.196V435H438.596V461H360.596V279ZM477.149 279H515.889L545.529 461H516.929L511.729 424.86V425.38H479.229L474.029 461H447.509L477.149 279ZM508.349 400.68L495.609 310.72H495.089L482.609 400.68H508.349ZM559.404 279H588.004V435H635.064V461H559.404V279ZM650.827 305H620.927V279H709.327V305H679.427V461H650.827V305ZM723.174 279H751.774V353.1H782.454V279H811.054V461H782.454V379.1H751.774V461H723.174V279Z"/>
</mask>
<path d="M20.8466 451.9L20.1081 452.574L20.1156 452.582L20.8466 451.9ZM9.92664 279V278H8.92664V279H9.92664ZM38.5266 279H39.5266V278H38.5266V279ZM42.1666 433.44L41.4141 434.099L41.4254 434.111L41.4371 434.124L42.1666 433.44ZM63.7466 433.44L63.0171 432.756L63.0054 432.769L62.9941 432.781L63.7466 433.44ZM67.6466 279V278H66.6466V279H67.6466ZM95.2066 279H96.2066V278H95.2066V279ZM84.2866 451.9L85.0177 452.582L85.0251 452.574L84.2866 451.9ZM52.5666 462.6C38.8896 462.6 28.6161 458.759 21.5777 451.218L20.1156 452.582C27.6371 460.641 38.5103 464.6 52.5666 464.6V462.6ZM21.5851 451.226C14.5265 443.495 10.9266 432.416 10.9266 417.84H8.92664C8.92664 432.731 12.6068 444.358 20.1082 452.574L21.5851 451.226ZM10.9266 417.84V279H8.92664V417.84H10.9266ZM9.92664 280H38.5266V278H9.92664V280ZM37.5266 279V419.92H39.5266V279H37.5266ZM37.5266 419.92C37.5266 426.247 38.7492 431.053 41.4141 434.099L42.9192 432.781C40.7308 430.28 39.5266 426.073 39.5266 419.92H37.5266ZM41.4371 434.124C44.2684 437.144 48.1987 438.6 53.0866 438.6V436.6C48.6145 436.6 45.2649 435.283 42.8962 432.756L41.4371 434.124ZM53.0866 438.6C57.9714 438.6 61.8338 437.145 64.4992 434.099L62.9941 432.781C60.8062 435.282 57.5619 436.6 53.0866 436.6V438.6ZM64.4762 434.124C67.3323 431.077 68.6466 426.26 68.6466 419.92H66.6466C66.6466 426.06 65.361 430.256 63.0171 432.756L64.4762 434.124ZM68.6466 419.92V279H66.6466V419.92H68.6466ZM67.6466 280H95.2066V278H67.6466V280ZM94.2066 279V417.84H96.2066V279H94.2066ZM94.2066 417.84C94.2066 432.416 90.6068 443.495 83.5482 451.226L85.0251 452.574C92.5265 444.358 96.2066 432.731 96.2066 417.84H94.2066ZM83.5556 451.218C76.5171 458.759 66.2437 462.6 52.5666 462.6V464.6C66.623 464.6 77.4961 460.641 85.0177 452.582L83.5556 451.218ZM115.576 279V278H114.576V279H115.576ZM189.676 290.44L188.944 291.122L189.676 290.44ZM189.676 375.46L188.944 374.778L189.676 375.46ZM144.176 386.9V385.9H143.176V386.9H144.176ZM144.176 461V462H145.176V461H144.176ZM115.576 461H114.576V462H115.576V461ZM168.096 357L167.365 356.318L167.352 356.331L167.34 356.345L168.096 357ZM168.096 308.9L167.34 309.555L167.352 309.569L167.365 309.582L168.096 308.9ZM144.176 305V304H143.176V305H144.176ZM144.176 360.9H143.176V361.9H144.176V360.9ZM115.576 280H157.696V278H115.576V280ZM157.696 280C171.736 280 182.088 283.764 188.944 291.122L190.408 289.758C183.051 281.863 172.082 278 157.696 278V280ZM188.944 291.122C195.818 298.499 199.336 309.395 199.336 323.98H201.336C201.336 309.098 197.747 297.635 190.408 289.758L188.944 291.122ZM199.336 323.98V341.92H201.336V323.98H199.336ZM199.336 341.92C199.336 356.505 195.818 367.401 188.944 374.778L190.408 376.142C197.747 368.265 201.336 356.802 201.336 341.92H199.336ZM188.944 374.778C182.088 382.136 171.736 385.9 157.696 385.9V387.9C172.082 387.9 183.051 384.037 190.408 376.142L188.944 374.778ZM157.696 385.9H144.176V387.9H157.696V385.9ZM143.176 386.9V461H145.176V386.9H143.176ZM144.176 460H115.576V462H144.176V460ZM116.576 461V279H114.576V461H116.576ZM157.696 361.9C162.556 361.9 166.347 360.545 168.852 357.655L167.34 356.345C165.339 358.655 162.196 359.9 157.696 359.9V361.9ZM168.827 357.682C171.517 354.8 172.736 350.058 172.736 343.74H170.736C170.736 349.902 169.528 354 167.365 356.318L168.827 357.682ZM172.736 343.74V322.16H170.736V343.74H172.736ZM172.736 322.16C172.736 315.842 171.517 311.1 168.827 308.218L167.365 309.582C169.528 311.9 170.736 315.998 170.736 322.16H172.736ZM168.852 308.245C166.347 305.355 162.556 304 157.696 304V306C162.196 306 165.339 307.245 167.34 309.555L168.852 308.245ZM157.696 304H144.176V306H157.696V304ZM143.176 305V360.9H145.176V305H143.176ZM144.176 361.9H157.696V359.9H144.176V361.9ZM209.109 279V278H208.002L208.114 279.101L209.109 279ZM236.669 279L237.665 278.909L237.582 278H236.669V279ZM249.409 418.88L248.413 418.971L248.496 419.88H249.409V418.88ZM249.929 418.88V419.88H250.837L250.924 418.976L249.929 418.88ZM263.449 279V278H262.541L262.454 278.904L263.449 279ZM294.649 279L295.644 278.904L295.557 278H294.649V279ZM308.169 418.88L307.174 418.976L307.261 419.88H308.169V418.88ZM308.689 418.88V419.88H309.602L309.685 418.971L308.689 418.88ZM321.429 279V278H320.516L320.433 278.909L321.429 279ZM346.129 279L347.124 279.101L347.236 278H346.129V279ZM327.669 461V462H328.573L328.664 461.101L327.669 461ZM292.049 461L291.055 461.105L291.149 462H292.049V461ZM279.049 338.28L280.043 338.175L279.949 337.28H279.049V338.28ZM278.529 338.28V337.28H277.629L277.535 338.175L278.529 338.28ZM265.529 461V462H266.429L266.523 461.105L265.529 461ZM227.569 461L226.574 461.101L226.665 462H227.569V461ZM209.109 280H236.669V278H209.109V280ZM235.673 279.091L248.413 418.971L250.405 418.789L237.665 278.909L235.673 279.091ZM249.409 419.88H249.929V417.88H249.409V419.88ZM250.924 418.976L264.444 279.096L262.454 278.904L248.934 418.784L250.924 418.976ZM263.449 280H294.649V278H263.449V280ZM293.654 279.096L307.174 418.976L309.164 418.784L295.644 278.904L293.654 279.096ZM308.169 419.88H308.689V417.88H308.169V419.88ZM309.685 418.971L322.425 279.091L320.433 278.909L307.693 418.789L309.685 418.971ZM321.429 280H346.129V278H321.429V280ZM345.134 278.899L326.674 460.899L328.664 461.101L347.124 279.101L345.134 278.899ZM327.669 460H292.049V462H327.669V460ZM293.043 460.895L280.043 338.175L278.055 338.385L291.055 461.105L293.043 460.895ZM279.049 337.28H278.529V339.28H279.049V337.28ZM277.535 338.175L264.535 460.895L266.523 461.105L279.523 338.385L277.535 338.175ZM265.529 460H227.569V462H265.529V460ZM228.564 460.899L210.104 278.899L208.114 279.101L226.574 461.101L228.564 460.899ZM360.596 279V278H359.596V279H360.596ZM438.596 279H439.596V278H438.596V279ZM438.596 305V306H439.596V305H438.596ZM389.196 305V304H388.196V305H389.196ZM389.196 353.1H388.196V354.1H389.196V353.1ZM428.456 353.1H429.456V352.1H428.456V353.1ZM428.456 379.1V380.1H429.456V379.1H428.456ZM389.196 379.1V378.1H388.196V379.1H389.196ZM389.196 435H388.196V436H389.196V435ZM438.596 435H439.596V434H438.596V435ZM438.596 461V462H439.596V461H438.596ZM360.596 461H359.596V462H360.596V461ZM360.596 280H438.596V278H360.596V280ZM437.596 279V305H439.596V279H437.596ZM438.596 304H389.196V306H438.596V304ZM388.196 305V353.1H390.196V305H388.196ZM389.196 354.1H428.456V352.1H389.196V354.1ZM427.456 353.1V379.1H429.456V353.1H427.456ZM428.456 378.1H389.196V380.1H428.456V378.1ZM388.196 379.1V435H390.196V379.1H388.196ZM389.196 436H438.596V434H389.196V436ZM437.596 435V461H439.596V435H437.596ZM438.596 460H360.596V462H438.596V460ZM361.596 461V279H359.596V461H361.596ZM477.149 279V278H476.298L476.162 278.839L477.149 279ZM515.889 279L516.876 278.839L516.739 278H515.889V279ZM545.529 461V462H546.705L546.516 460.839L545.529 461ZM516.929 461L515.939 461.142L516.062 462H516.929V461ZM511.729 424.86L512.719 424.718L510.729 424.86H511.729ZM511.729 425.38V426.38H512.729V425.38H511.729ZM479.229 425.38V424.38H478.364L478.239 425.236L479.229 425.38ZM474.029 461V462H474.893L475.018 461.144L474.029 461ZM447.509 461L446.522 460.839L446.333 462H447.509V461ZM508.349 400.68V401.68H509.5L509.339 400.54L508.349 400.68ZM495.609 310.72L496.599 310.58L496.477 309.72H495.609V310.72ZM495.089 310.72V309.72H494.218L494.098 310.583L495.089 310.72ZM482.609 400.68L481.618 400.543L481.46 401.68H482.609V400.68ZM477.149 280H515.889V278H477.149V280ZM514.902 279.161L544.542 461.161L546.516 460.839L516.876 278.839L514.902 279.161ZM545.529 460H516.929V462H545.529V460ZM517.918 460.858L512.719 424.718L510.739 425.002L515.939 461.142L517.918 460.858ZM510.729 424.86V425.38H512.729V424.86H510.729ZM511.729 424.38H479.229V426.38H511.729V424.38ZM478.239 425.236L473.039 460.856L475.018 461.144L480.218 425.524L478.239 425.236ZM474.029 460H447.509V462H474.029V460ZM448.496 461.161L478.136 279.161L476.162 278.839L446.522 460.839L448.496 461.161ZM509.339 400.54L496.599 310.58L494.619 310.86L507.359 400.82L509.339 400.54ZM495.609 309.72H495.089V311.72H495.609V309.72ZM494.098 310.583L481.618 400.543L483.599 400.817L496.079 310.857L494.098 310.583ZM482.609 401.68H508.349V399.68H482.609V401.68ZM559.404 279V278H558.404V279H559.404ZM588.004 279H589.004V278H588.004V279ZM588.004 435H587.004V436H588.004V435ZM635.064 435H636.064V434H635.064V435ZM635.064 461V462H636.064V461H635.064ZM559.404 461H558.404V462H559.404V461ZM559.404 280H588.004V278H559.404V280ZM587.004 279V435H589.004V279H587.004ZM588.004 436H635.064V434H588.004V436ZM634.064 435V461H636.064V435H634.064ZM635.064 460H559.404V462H635.064V460ZM560.404 461V279H558.404V461H560.404ZM650.827 305H651.827V304H650.827V305ZM620.927 305H619.927V306H620.927V305ZM620.927 279V278H619.927V279H620.927ZM709.327 279H710.327V278H709.327V279ZM709.327 305V306H710.327V305H709.327ZM679.427 305V304H678.427V305H679.427ZM679.427 461V462H680.427V461H679.427ZM650.827 461H649.827V462H650.827V461ZM650.827 304H620.927V306H650.827V304ZM621.927 305V279H619.927V305H621.927ZM620.927 280H709.327V278H620.927V280ZM708.327 279V305H710.327V279H708.327ZM709.327 304H679.427V306H709.327V304ZM678.427 305V461H680.427V305H678.427ZM679.427 460H650.827V462H679.427V460ZM651.827 461V305H649.827V461H651.827ZM723.174 279V278H722.174V279H723.174ZM751.774 279H752.774V278H751.774V279ZM751.774 353.1H750.774V354.1H751.774V353.1ZM782.454 353.1V354.1H783.454V353.1H782.454ZM782.454 279V278H781.454V279H782.454ZM811.054 279H812.054V278H811.054V279ZM811.054 461V462H812.054V461H811.054ZM782.454 461H781.454V462H782.454V461ZM782.454 379.1H783.454V378.1H782.454V379.1ZM751.774 379.1V378.1H750.774V379.1H751.774ZM751.774 461V462H752.774V461H751.774ZM723.174 461H722.174V462H723.174V461ZM723.174 280H751.774V278H723.174V280ZM750.774 279V353.1H752.774V279H750.774ZM751.774 354.1H782.454V352.1H751.774V354.1ZM783.454 353.1V279H781.454V353.1H783.454ZM782.454 280H811.054V278H782.454V280ZM810.054 279V461H812.054V279H810.054ZM811.054 460H782.454V462H811.054V460ZM783.454 461V379.1H781.454V461H783.454ZM782.454 378.1H751.774V380.1H782.454V378.1ZM750.774 379.1V461H752.774V379.1H750.774ZM751.774 460H723.174V462H751.774V460ZM724.174 461V279H722.174V461H724.174Z" fill="black" fill-opacity="0.5" mask="url(#path-2-outside-1_1_8535)"/>
</g>
<g opacity="0.2">
<mask id="path-4-outside-2_1_8535" maskUnits="userSpaceOnUse" x="8" y="51" width="805" height="187" fill="black">
<rect fill="white" x="8" y="51" width="805" height="187"/>
<path d="M52.5666 236.6C38.7 236.6 28.1266 232.7 20.8466 224.9C13.5666 216.927 9.92664 205.573 9.92664 190.84V52H38.5266V192.92C38.5266 199.16 39.74 203.667 42.1666 206.44C44.7666 209.213 48.4066 210.6 53.0866 210.6C57.7666 210.6 61.32 209.213 63.7466 206.44C66.3466 203.667 67.6466 199.16 67.6466 192.92V52H95.2066V190.84C95.2066 205.573 91.5666 216.927 84.2866 224.9C77.0066 232.7 66.4333 236.6 52.5666 236.6ZM115.576 52H157.696C171.909 52 182.569 55.8133 189.676 63.44C196.783 71.0667 200.336 82.2467 200.336 96.98V114.92C200.336 129.653 196.783 140.833 189.676 148.46C182.569 156.087 171.909 159.9 157.696 159.9H144.176V234H115.576V52ZM157.696 133.9C162.376 133.9 165.843 132.6 168.096 130C170.523 127.4 171.736 122.98 171.736 116.74V95.16C171.736 88.92 170.523 84.5 168.096 81.9C165.843 79.3 162.376 78 157.696 78H144.176V133.9H157.696ZM209.109 52H236.669L249.409 191.88H249.929L263.449 52H294.649L308.169 191.88H308.689L321.429 52H346.129L327.669 234H292.049L279.049 111.28H278.529L265.529 234H227.569L209.109 52ZM360.596 52H438.596V78H389.196V126.1H428.456V152.1H389.196V208H438.596V234H360.596V52ZM477.149 52H515.889L545.529 234H516.929L511.729 197.86V198.38H479.229L474.029 234H447.509L477.149 52ZM508.349 173.68L495.609 83.72H495.089L482.609 173.68H508.349ZM559.404 52H588.004V208H635.064V234H559.404V52ZM650.827 78H620.927V52H709.327V78H679.427V234H650.827V78ZM723.174 52H751.774V126.1H782.454V52H811.054V234H782.454V152.1H751.774V234H723.174V52Z"/>
</mask>
<path d="M20.8466 224.9L20.1081 225.574L20.1156 225.582L20.8466 224.9ZM9.92664 52V51H8.92664V52H9.92664ZM38.5266 52H39.5266V51H38.5266V52ZM42.1666 206.44L41.4141 207.099L41.4254 207.111L41.4371 207.124L42.1666 206.44ZM63.7466 206.44L63.0171 205.756L63.0054 205.769L62.9941 205.781L63.7466 206.44ZM67.6466 52V51H66.6466V52H67.6466ZM95.2066 52H96.2066V51H95.2066V52ZM84.2866 224.9L85.0177 225.582L85.0251 225.574L84.2866 224.9ZM52.5666 235.6C38.8896 235.6 28.6161 231.759 21.5777 224.218L20.1156 225.582C27.6371 233.641 38.5103 237.6 52.5666 237.6V235.6ZM21.5851 224.226C14.5265 216.495 10.9266 205.416 10.9266 190.84H8.92664C8.92664 205.731 12.6068 217.358 20.1082 225.574L21.5851 224.226ZM10.9266 190.84V52H8.92664V190.84H10.9266ZM9.92664 53H38.5266V51H9.92664V53ZM37.5266 52V192.92H39.5266V52H37.5266ZM37.5266 192.92C37.5266 199.247 38.7492 204.053 41.4141 207.099L42.9192 205.781C40.7308 203.28 39.5266 199.073 39.5266 192.92H37.5266ZM41.4371 207.124C44.2684 210.144 48.1987 211.6 53.0866 211.6V209.6C48.6145 209.6 45.2649 208.283 42.8962 205.756L41.4371 207.124ZM53.0866 211.6C57.9714 211.6 61.8338 210.145 64.4992 207.099L62.9941 205.781C60.8062 208.282 57.5619 209.6 53.0866 209.6V211.6ZM64.4762 207.124C67.3323 204.077 68.6466 199.26 68.6466 192.92H66.6466C66.6466 199.06 65.361 203.256 63.0171 205.756L64.4762 207.124ZM68.6466 192.92V52H66.6466V192.92H68.6466ZM67.6466 53H95.2066V51H67.6466V53ZM94.2066 52V190.84H96.2066V52H94.2066ZM94.2066 190.84C94.2066 205.416 90.6068 216.495 83.5482 224.226L85.0251 225.574C92.5265 217.358 96.2066 205.731 96.2066 190.84H94.2066ZM83.5556 224.218C76.5171 231.759 66.2437 235.6 52.5666 235.6V237.6C66.623 237.6 77.4961 233.641 85.0177 225.582L83.5556 224.218ZM115.576 52V51H114.576V52H115.576ZM189.676 63.44L188.944 64.1217L189.676 63.44ZM189.676 148.46L188.944 147.778L189.676 148.46ZM144.176 159.9V158.9H143.176V159.9H144.176ZM144.176 234V235H145.176V234H144.176ZM115.576 234H114.576V235H115.576V234ZM168.096 130L167.365 129.318L167.352 129.331L167.34 129.345L168.096 130ZM168.096 81.9L167.34 82.5549L167.352 82.5688L167.365 82.5823L168.096 81.9ZM144.176 78V77H143.176V78H144.176ZM144.176 133.9H143.176V134.9H144.176V133.9ZM115.576 53H157.696V51H115.576V53ZM157.696 53C171.736 53 182.088 56.7636 188.944 64.1217L190.408 62.7583C183.051 54.863 172.082 51 157.696 51V53ZM188.944 64.1217C195.818 71.4988 199.336 82.395 199.336 96.98H201.336C201.336 82.0983 197.747 70.6345 190.408 62.7583L188.944 64.1217ZM199.336 96.98V114.92H201.336V96.98H199.336ZM199.336 114.92C199.336 129.505 195.818 140.401 188.944 147.778L190.408 149.142C197.747 141.265 201.336 129.802 201.336 114.92H199.336ZM188.944 147.778C182.088 155.136 171.736 158.9 157.696 158.9V160.9C172.082 160.9 183.051 157.037 190.408 149.142L188.944 147.778ZM157.696 158.9H144.176V160.9H157.696V158.9ZM143.176 159.9V234H145.176V159.9H143.176ZM144.176 233H115.576V235H144.176V233ZM116.576 234V52H114.576V234H116.576ZM157.696 134.9C162.556 134.9 166.347 133.545 168.852 130.655L167.34 129.345C165.339 131.655 162.196 132.9 157.696 132.9V134.9ZM168.827 130.682C171.517 127.8 172.736 123.058 172.736 116.74H170.736C170.736 122.902 169.528 127 167.365 129.318L168.827 130.682ZM172.736 116.74V95.16H170.736V116.74H172.736ZM172.736 95.16C172.736 88.8416 171.517 84.1 168.827 81.2177L167.365 82.5823C169.528 84.9 170.736 88.9984 170.736 95.16H172.736ZM168.852 81.2451C166.347 78.3548 162.556 77 157.696 77V79C162.196 79 165.339 80.2452 167.34 82.5549L168.852 81.2451ZM157.696 77H144.176V79H157.696V77ZM143.176 78V133.9H145.176V78H143.176ZM144.176 134.9H157.696V132.9H144.176V134.9ZM209.109 52V51H208.002L208.114 52.1009L209.109 52ZM236.669 52L237.665 51.9093L237.582 51H236.669V52ZM249.409 191.88L248.413 191.971L248.496 192.88H249.409V191.88ZM249.929 191.88V192.88H250.837L250.924 191.976L249.929 191.88ZM263.449 52V51H262.541L262.454 51.9038L263.449 52ZM294.649 52L295.644 51.9038L295.557 51H294.649V52ZM308.169 191.88L307.174 191.976L307.261 192.88H308.169V191.88ZM308.689 191.88V192.88H309.602L309.685 191.971L308.689 191.88ZM321.429 52V51H320.516L320.433 51.9093L321.429 52ZM346.129 52L347.124 52.1009L347.236 51H346.129V52ZM327.669 234V235H328.573L328.664 234.101L327.669 234ZM292.049 234L291.055 234.105L291.149 235H292.049V234ZM279.049 111.28L280.043 111.175L279.949 110.28H279.049V111.28ZM278.529 111.28V110.28H277.629L277.535 111.175L278.529 111.28ZM265.529 234V235H266.429L266.523 234.105L265.529 234ZM227.569 234L226.574 234.101L226.665 235H227.569V234ZM209.109 53H236.669V51H209.109V53ZM235.673 52.0907L248.413 191.971L250.405 191.789L237.665 51.9093L235.673 52.0907ZM249.409 192.88H249.929V190.88H249.409V192.88ZM250.924 191.976L264.444 52.0962L262.454 51.9038L248.934 191.784L250.924 191.976ZM263.449 53H294.649V51H263.449V53ZM293.654 52.0962L307.174 191.976L309.164 191.784L295.644 51.9038L293.654 52.0962ZM308.169 192.88H308.689V190.88H308.169V192.88ZM309.685 191.971L322.425 52.0907L320.433 51.9093L307.693 191.789L309.685 191.971ZM321.429 53H346.129V51H321.429V53ZM345.134 51.8991L326.674 233.899L328.664 234.101L347.124 52.1009L345.134 51.8991ZM327.669 233H292.049V235H327.669V233ZM293.043 233.895L280.043 111.175L278.055 111.385L291.055 234.105L293.043 233.895ZM279.049 110.28H278.529V112.28H279.049V110.28ZM277.535 111.175L264.535 233.895L266.523 234.105L279.523 111.385L277.535 111.175ZM265.529 233H227.569V235H265.529V233ZM228.564 233.899L210.104 51.8991L208.114 52.1009L226.574 234.101L228.564 233.899ZM360.596 52V51H359.596V52H360.596ZM438.596 52H439.596V51H438.596V52ZM438.596 78V79H439.596V78H438.596ZM389.196 78V77H388.196V78H389.196ZM389.196 126.1H388.196V127.1H389.196V126.1ZM428.456 126.1H429.456V125.1H428.456V126.1ZM428.456 152.1V153.1H429.456V152.1H428.456ZM389.196 152.1V151.1H388.196V152.1H389.196ZM389.196 208H388.196V209H389.196V208ZM438.596 208H439.596V207H438.596V208ZM438.596 234V235H439.596V234H438.596ZM360.596 234H359.596V235H360.596V234ZM360.596 53H438.596V51H360.596V53ZM437.596 52V78H439.596V52H437.596ZM438.596 77H389.196V79H438.596V77ZM388.196 78V126.1H390.196V78H388.196ZM389.196 127.1H428.456V125.1H389.196V127.1ZM427.456 126.1V152.1H429.456V126.1H427.456ZM428.456 151.1H389.196V153.1H428.456V151.1ZM388.196 152.1V208H390.196V152.1H388.196ZM389.196 209H438.596V207H389.196V209ZM437.596 208V234H439.596V208H437.596ZM438.596 233H360.596V235H438.596V233ZM361.596 234V52H359.596V234H361.596ZM477.149 52V51H476.298L476.162 51.8392L477.149 52ZM515.889 52L516.876 51.8392L516.739 51H515.889V52ZM545.529 234V235H546.705L546.516 233.839L545.529 234ZM516.929 234L515.939 234.142L516.062 235H516.929V234ZM511.729 197.86L512.719 197.718L510.729 197.86H511.729ZM511.729 198.38V199.38H512.729V198.38H511.729ZM479.229 198.38V197.38H478.364L478.239 198.236L479.229 198.38ZM474.029 234V235H474.893L475.018 234.144L474.029 234ZM447.509 234L446.522 233.839L446.333 235H447.509V234ZM508.349 173.68V174.68H509.5L509.339 173.54L508.349 173.68ZM495.609 83.72L496.599 83.5798L496.477 82.72H495.609V83.72ZM495.089 83.72V82.72H494.218L494.098 83.5826L495.089 83.72ZM482.609 173.68L481.618 173.543L481.46 174.68H482.609V173.68ZM477.149 53H515.889V51H477.149V53ZM514.902 52.1607L544.542 234.161L546.516 233.839L516.876 51.8392L514.902 52.1607ZM545.529 233H516.929V235H545.529V233ZM517.918 233.858L512.719 197.718L510.739 198.002L515.939 234.142L517.918 233.858ZM510.729 197.86V198.38H512.729V197.86H510.729ZM511.729 197.38H479.229V199.38H511.729V197.38ZM478.239 198.236L473.039 233.856L475.018 234.144L480.218 198.524L478.239 198.236ZM474.029 233H447.509V235H474.029V233ZM448.496 234.161L478.136 52.1607L476.162 51.8392L446.522 233.839L448.496 234.161ZM509.339 173.54L496.599 83.5798L494.619 83.8602L507.359 173.82L509.339 173.54ZM495.609 82.72H495.089V84.72H495.609V82.72ZM494.098 83.5826L481.618 173.543L483.599 173.817L496.079 83.8574L494.098 83.5826ZM482.609 174.68H508.349V172.68H482.609V174.68ZM559.404 52V51H558.404V52H559.404ZM588.004 52H589.004V51H588.004V52ZM588.004 208H587.004V209H588.004V208ZM635.064 208H636.064V207H635.064V208ZM635.064 234V235H636.064V234H635.064ZM559.404 234H558.404V235H559.404V234ZM559.404 53H588.004V51H559.404V53ZM587.004 52V208H589.004V52H587.004ZM588.004 209H635.064V207H588.004V209ZM634.064 208V234H636.064V208H634.064ZM635.064 233H559.404V235H635.064V233ZM560.404 234V52H558.404V234H560.404ZM650.827 78H651.827V77H650.827V78ZM620.927 78H619.927V79H620.927V78ZM620.927 52V51H619.927V52H620.927ZM709.327 52H710.327V51H709.327V52ZM709.327 78V79H710.327V78H709.327ZM679.427 78V77H678.427V78H679.427ZM679.427 234V235H680.427V234H679.427ZM650.827 234H649.827V235H650.827V234ZM650.827 77H620.927V79H650.827V77ZM621.927 78V52H619.927V78H621.927ZM620.927 53H709.327V51H620.927V53ZM708.327 52V78H710.327V52H708.327ZM709.327 77H679.427V79H709.327V77ZM678.427 78V234H680.427V78H678.427ZM679.427 233H650.827V235H679.427V233ZM651.827 234V78H649.827V234H651.827ZM723.174 52V51H722.174V52H723.174ZM751.774 52H752.774V51H751.774V52ZM751.774 126.1H750.774V127.1H751.774V126.1ZM782.454 126.1V127.1H783.454V126.1H782.454ZM782.454 52V51H781.454V52H782.454ZM811.054 52H812.054V51H811.054V52ZM811.054 234V235H812.054V234H811.054ZM782.454 234H781.454V235H782.454V234ZM782.454 152.1H783.454V151.1H782.454V152.1ZM751.774 152.1V151.1H750.774V152.1H751.774ZM751.774 234V235H752.774V234H751.774ZM723.174 234H722.174V235H723.174V234ZM723.174 53H751.774V51H723.174V53ZM750.774 52V126.1H752.774V52H750.774ZM751.774 127.1H782.454V125.1H751.774V127.1ZM783.454 126.1V52H781.454V126.1H783.454ZM782.454 53H811.054V51H782.454V53ZM810.054 52V234H812.054V52H810.054ZM811.054 233H782.454V235H811.054V233ZM783.454 234V152.1H781.454V234H783.454ZM782.454 151.1H751.774V153.1H782.454V151.1ZM750.774 152.1V234H752.774V152.1H750.774ZM751.774 233H723.174V235H751.774V233ZM724.174 234V52H722.174V234H724.174Z" fill="black" fill-opacity="0.5" mask="url(#path-4-outside-2_1_8535)"/>
</g>
</svg>
