<svg width="23" height="30" viewBox="0 0 23 30" fill="none" xmlns="http://www.w3.org/2000/svg">
<path d="M11.144 29.6528H11.1421C11.026 29.6527 10.9113 29.6249 10.8081 29.5718C10.705 29.5187 10.6159 29.4415 10.5483 29.3472L0.387207 15.144C0.308833 15.0348 0.261358 14.906 0.251465 14.772C0.241644 14.6383 0.269376 14.5045 0.330566 14.3853C0.457373 14.1407 0.708866 13.9868 0.980957 13.9868H5.98389V0.981934L5.99756 0.839355C6.00685 0.792371 6.02116 0.746132 6.03955 0.70166C6.07626 0.613 6.12991 0.532223 6.19775 0.464355C6.26562 0.396474 6.34638 0.342889 6.43506 0.306152C6.5238 0.269405 6.61928 0.25045 6.71533 0.250488L15.5063 0.249512C15.6022 0.249444 15.6971 0.268614 15.7856 0.305176C15.8742 0.3418 15.9551 0.395691 16.0229 0.463379C16.0908 0.53122 16.1454 0.612032 16.1821 0.700684C16.2189 0.789377 16.2378 0.884957 16.2378 0.980957L16.2368 13.7378V13.9878H21.2388C21.3727 13.9875 21.5042 14.0237 21.6187 14.0933C21.7332 14.163 21.8268 14.2631 21.8882 14.3823V14.3833L21.9282 14.4751C21.9616 14.5693 21.9753 14.6696 21.9683 14.77C21.9589 14.9039 21.9132 15.0327 21.8354 15.1421L11.7397 29.3452C11.6722 29.4402 11.5825 29.5172 11.479 29.5708C11.4014 29.611 11.3173 29.6374 11.231 29.6479L11.144 29.6528Z" fill="white" stroke="#DF9420" stroke-width="0.5"/>
</svg>
